<svg xmlns="http://www.w3.org/2000/svg" viewBox="0 0 512 512" width="512" height="512">
  <rect width="512" height="512" rx="64" fill="#0c0b09"/>
  <rect x="16" y="16" width="480" height="480" rx="48" fill="none" stroke="#2e2a24" stroke-width="8"/>
  <!-- P letter path (italic serif style) -->
  <g transform="translate(80, 120)" fill="#c9a84c">
    <!-- Italic P -->
    <path d="M60,0 L60,280 L100,280 L100,170 L160,170 C220,170 260,135 260,85 C260,35 220,0 160,0 Z M100,38 L155,38 C200,38 220,55 220,85 C220,115 200,132 155,132 L100,132 Z" transform="skewX(-8)"/>
    <!-- Italic S -->
    <path d="M310,5 C270,5 240,28 240,60 C240,100 270,115 315,128 C350,138 365,150 365,172 C365,198 345,215 310,215 C280,215 255,200 240,178 L215,208 C235,237 268,255 310,255 C358,255 390,228 390,192 C390,152 358,135 312,122 C280,113 265,100 265,80 C265,58 282,42 310,42 C335,42 352,52 365,70 L388,42 C372,18 345,5 310,5 Z" transform="skewX(-8)"/>
  </g>
</svg>
